<?xml version="1.0" encoding="utf-8"?>
<!-- Generator: Adobe Illustrator 24.1.1, SVG Export Plug-In . SVG Version: 6.00 Build 0)  -->
<svg version="1.1" id="Camada_1" xmlns="http://www.w3.org/2000/svg" xmlns:xlink="http://www.w3.org/1999/xlink" x="0px" y="0px"
	 viewBox="0 0 40 40" enable-background="new 0 0 40 40" xml:space="preserve">
<g>
	<g>
		<path fill="#8E66FF" d="M20.4,0c0.3,0.1,0.7,0.2,0.9,0.4c0.7,0.4,1,1.1,1,1.9c0,0.6,0,1.2,0,1.8c1.5,0.4,2.9,0.7,4.2,1.3
			c1.1,0.4,2.1,1.1,3.2,1.6c0.3,0.2,0.5,0.5,0.4,0.9c-0.1,0.3-0.3,0.6-0.6,0.6c-0.2,0-0.5-0.1-0.7-0.2c-1.8-1.2-3.7-2-5.8-2.4
			c-6.1-1-11.2,0.8-15.3,5.3c-2.3,2.6-3.6,5.6-4,9C2.9,27.3,6.8,34,13.2,36.9c8.7,4,18.8-0.2,22.2-9.2c1.8-5,1.3-9.8-1.4-14.3
			c0-0.1-0.1-0.2-0.1-0.2c-0.3-0.5-0.2-0.9,0.2-1.2c0.4-0.2,0.9-0.1,1.1,0.4c0.5,0.9,1.1,1.9,1.5,2.9c3.7,8.9-0.2,18.9-8.9,23.1
			c-7.8,3.7-17.3,1.2-22.3-5.8C3,29.1,1.9,25.3,2.1,21.2C2.4,12.9,8.5,5.8,16.7,4.4c0.3-0.1,0.6-0.1,0.9-0.2c0-0.6,0-1.1,0-1.7
			c0-1.3,0.6-2.1,1.9-2.5c0,0,0.1,0,0.1-0.1C19.9,0,20.1,0,20.4,0z M20.8,4.1c0-0.6,0-1.2,0-1.8c0-0.4-0.4-0.7-0.7-0.7
			c-0.4,0-0.8,0.3-0.8,0.7c0,0.6,0,1.2,0,1.8C19.8,4.1,20.2,4.1,20.8,4.1z"/>
		<path fill="#8E66FF" d="M20,7.2c8.2,0,14.9,6.7,14.9,14.8c0,8.2-6.7,14.8-14.8,14.8c-8.2,0-14.9-6.7-14.9-14.8
			C5.2,13.8,11.8,7.2,20,7.2z M33.3,22.1c0-7.3-5.9-13.3-13.2-13.3C12.7,8.7,6.7,14.7,6.7,22s5.9,13.3,13.2,13.3
			C27.3,35.3,33.3,29.4,33.3,22.1z"/>
		<path fill="#8E66FF" d="M32.2,10.6c-0.4,0-0.8-0.3-0.8-0.8c0-0.4,0.3-0.8,0.7-0.8s0.8,0.3,0.8,0.8S32.6,10.6,32.2,10.6z"/>
		<path fill="#8E66FF" d="M19.2,25.8c-1.6,1-3,2-4.5,3c-0.3,0.2-0.7,0.4-1,0.7c-0.4,0.3-0.7,0.2-1,0c-0.3-0.3-0.3-0.7-0.1-1.1
			c1.1-1.7,2.2-3.4,3.4-5.1c0.1-0.1,0.1-0.2,0.3-0.4c-0.2,0-0.3,0-0.4,0c-1.6,0-3.3,0-4.9,0c-0.6,0-0.9-0.3-0.9-0.9
			c0-0.4,0.4-0.7,0.9-0.7c2,0,4,0,6,0c0.3,0,0.6-0.1,0.7-0.4c0.3-0.6,0.7-1,1.3-1.3c0.3-0.2,0.4-0.4,0.4-0.7c0-2,0-4,0-5.9
			c0-0.5,0.2-0.8,0.6-0.9c0.5-0.1,1,0.2,1,0.8c0,1.6,0,3.3,0,4.9c0,0.1,0,0.3,0,0.5c0.2-0.1,0.4-0.2,0.5-0.3
			c1.6-1.1,3.3-2.2,4.9-3.3c0.3-0.2,0.6-0.3,0.9-0.2c0.5,0.2,0.6,0.7,0.3,1.2c-0.9,1.3-1.8,2.7-2.6,4c-0.3,0.5-0.6,0.9-1,1.5
			c0.2,0,0.3,0,0.5,0c1.6,0,3.3,0,4.9,0c0.6,0,0.9,0.4,0.9,0.9c-0.1,0.4-0.4,0.7-0.9,0.7c-2,0-4,0-5.9,0c-0.3,0-0.6,0.1-0.7,0.4
			c-0.3,0.6-0.7,1-1.3,1.3c-0.3,0.2-0.4,0.4-0.4,0.8c0,2,0,3.9,0,5.9c0,0.5-0.2,0.8-0.6,0.9c-0.5,0.1-1-0.2-1-0.8c0-1.6,0-3.2,0-4.8
			C19.2,26.2,19.2,26,19.2,25.8z M24,18.1c-0.1,0.1-0.2,0.1-0.2,0.1c-1.5,1-2.9,1.9-4.4,2.9c-0.1,0.1-0.3,0.2-0.3,0.4
			c-0.9,1.4-1.8,2.7-2.7,4.1c-0.1,0.1-0.1,0.2-0.2,0.4c0.1-0.1,0.2-0.1,0.3-0.1c1.4-0.9,2.9-1.9,4.3-2.8C20.9,23,21,23,21,22.9
			C21.9,21.2,22.9,19.7,24,18.1z"/>
	</g>
</g>
</svg>
