<?xml version="1.0" encoding="utf-8"?>
<!-- Generator: Adobe Illustrator 24.1.1, SVG Export Plug-In . SVG Version: 6.00 Build 0)  -->
<svg version="1.2" baseProfile="tiny" id="Camada_1"
	 xmlns="http://www.w3.org/2000/svg" xmlns:xlink="http://www.w3.org/1999/xlink" x="0px" y="0px" viewBox="0 0 600 300"
	 xml:space="preserve">
<g>
	<g>
		<path fill="#333333" d="M38.6,162.3h-8.7V95.1h14.9c6.6,0,12.3,2.5,17,7.6c4.7,5.1,7,11.2,7,18.5c0,7.2-2.3,13.4-7,18.5
			c-4.7,5.1-10.3,7.6-17,7.6h-6.2V162.3z M38.6,137.8h6.2c4.2,0,7.9-1.6,10.8-4.8c3-3.3,4.5-7.2,4.5-11.8c0-4.6-1.5-8.5-4.5-11.7
			c-2.9-3.3-6.6-4.9-10.8-4.9h-6.2V137.8z"/>
		<path fill="#333333" d="M81.7,104.2v31.2h21v9.2h-21v8.4H109v9.2H73.3V95.1H109v9.2H81.7z"/>
		<path fill="#333333" d="M120,157.5c-3.9-3.6-5.9-8.4-5.9-14.4h8.3c0,3.4,1.2,6,3.6,7.9c2,1.5,4.2,2.2,6.6,2.2
			c3.1,0,5.6-0.9,7.7-2.5c2.1-1.7,3.2-4.1,3.2-7.2c0-2.1-0.6-3.7-1.9-4.9c-1.7-2-4.9-3.3-9.4-3.8c-6.3-0.8-11.2-3.2-14.5-7.2
			c-2.8-3.3-4.2-7.2-4.2-11.5c0-5.1,1.4-9.7,4.2-13.6c3.5-4.8,8.4-7.3,14.7-7.3c5.8,0,10.5,2,14.2,6.1c3.8,4,5.6,9.5,5.6,16.3H144
			c0-3.9-0.8-7-2.6-9.2c-2-2.8-5.1-4.1-9-4.1c-4.3,0-7.4,1.9-9.2,5.9c-0.9,2-1.4,4-1.4,6c0,1.7,0.6,3.3,1.6,4.9
			c1.9,2.7,5.1,4.3,9.7,4.8c7,0.9,12,3.3,15.1,7.4c2.4,3.1,3.6,7,3.6,11.7c0,4.8-1.8,8.8-5.4,12.3c-3.6,3.4-8.2,5.1-13.8,5.1
			C127.9,162.3,123.6,160.7,120,157.5z"/>
		<path fill="#333333" d="M188.8,154h-25l-3.1,8.3h-9.2L176.3,95l24.8,67.3h-9.2L188.8,154z M185.4,144.7l-9.1-24.7l-9,24.7H185.4z"
			/>
		<path fill="#333333" d="M205.2,162.3V95.1h14c4.2,0,8.2,0.9,12,2.6c3.7,1.7,7,4.1,9.9,7.2c2.8,3,5,6.6,6.6,10.7
			c1.7,4.1,2.5,8.5,2.5,13c0,4.6-0.8,9-2.5,13.1c-1.5,4-3.7,7.6-6.6,10.7c-2.9,3.1-6.2,5.5-9.9,7.2c-3.8,1.8-7.8,2.7-12,2.7H205.2z
			 M213.8,153h5.5c3,0,5.9-0.7,8.7-1.9c2.7-1.2,5.1-3,7.1-5.2c2.1-2.3,3.7-4.8,4.8-7.7c1.2-3,1.7-6.2,1.7-9.5c0-3.3-0.6-6.5-1.7-9.5
			c-1.1-2.9-2.8-5.5-4.8-7.7c-2-2.3-4.4-4-7.1-5.2c-2.8-1.3-5.7-1.9-8.7-1.9h-5.5V153z"/>
		<path fill="#333333" d="M263.2,104.2v31.2h21v9.2h-21v8.4h27.3v9.2h-35.7V95.1h35.7v9.2H263.2z"/>
		<path fill="#333333" d="M331.1,162.3h-35.9V95.1h8.4v58h27.5V162.3z"/>
		<path fill="#333333" d="M338.7,152.5c-6-6.6-9.1-14.5-9.1-23.8c0-9.2,3-17.2,9.1-23.8c6-6.6,13.3-9.8,21.9-9.8
			c8.5,0,15.8,3.2,21.8,9.8c6,6.6,9,14.5,9,23.8c0,9.3-3,17.2-9,23.8c-6,6.6-13.3,9.9-21.8,9.9C352.1,162.3,344.8,159,338.7,152.5z
			 M344.5,111.2c-4.4,4.8-6.6,10.7-6.6,17.5s2.2,12.7,6.6,17.5c4.5,4.8,9.9,7.2,16.1,7.2c6.3,0,11.6-2.4,16.1-7.2
			c4.5-4.8,6.7-10.7,6.7-17.5s-2.2-12.7-6.7-17.5c-4.5-4.8-9.8-7.3-16.1-7.3C354.3,103.9,348.9,106.3,344.5,111.2z"/>
		<path fill="#333333" d="M415.2,162.3V95.1h14c4.2,0,8.2,0.9,12,2.6c3.7,1.7,7,4.1,9.9,7.2c2.8,3,5,6.6,6.6,10.7
			c1.7,4.1,2.5,8.5,2.5,13c0,4.6-0.8,9-2.5,13.1c-1.5,4-3.7,7.6-6.6,10.7c-2.9,3.1-6.2,5.5-9.9,7.2c-3.8,1.8-7.8,2.7-12,2.7H415.2z
			 M423.7,153h5.5c3,0,5.9-0.7,8.7-1.9c2.7-1.2,5.1-3,7.1-5.2c2.1-2.3,3.7-4.8,4.8-7.7c1.2-3,1.7-6.2,1.7-9.5c0-3.3-0.6-6.5-1.7-9.5
			c-1.1-2.9-2.8-5.5-4.8-7.7c-2-2.3-4.4-4-7.1-5.2c-2.8-1.3-5.7-1.9-8.7-1.9h-5.5V153z"/>
		<path fill="#333333" d="M473.7,152.5c-6-6.6-9.1-14.5-9.1-23.8c0-9.2,3-17.2,9.1-23.8c6-6.6,13.3-9.8,21.9-9.8
			c8.5,0,15.8,3.2,21.8,9.8c6,6.6,9,14.5,9,23.8c0,9.3-3,17.2-9,23.8c-6,6.6-13.3,9.9-21.8,9.9C487.1,162.3,479.8,159,473.7,152.5z
			 M479.5,111.2c-4.4,4.8-6.6,10.7-6.6,17.5s2.2,12.7,6.6,17.5c4.5,4.8,9.9,7.2,16.1,7.2c6.3,0,11.6-2.4,16.1-7.2
			c4.5-4.8,6.7-10.7,6.7-17.5s-2.2-12.7-6.7-17.5c-4.5-4.8-9.8-7.3-16.1-7.3C489.3,103.9,483.9,106.3,479.5,111.2z"/>
		<path fill="#333333" d="M537.5,157.5c-3.9-3.6-5.9-8.4-5.9-14.4h8.3c0,3.4,1.2,6,3.6,7.9c2,1.5,4.2,2.2,6.6,2.2
			c3.1,0,5.6-0.9,7.7-2.5c2.1-1.7,3.2-4.1,3.2-7.2c0-2.1-0.6-3.7-1.9-4.9c-1.7-2-4.9-3.3-9.4-3.8c-6.3-0.8-11.2-3.2-14.5-7.2
			c-2.8-3.3-4.2-7.2-4.2-11.5c0-5.1,1.4-9.7,4.2-13.6c3.5-4.8,8.4-7.3,14.7-7.3c5.8,0,10.5,2,14.2,6.1c3.8,4,5.6,9.5,5.6,16.3h-8.3
			c0-3.9-0.8-7-2.6-9.2c-2-2.8-5.1-4.1-9-4.1c-4.3,0-7.4,1.9-9.2,5.9c-0.9,2-1.4,4-1.4,6c0,1.7,0.6,3.3,1.6,4.9
			c1.9,2.7,5.1,4.3,9.7,4.8c7,0.9,12,3.3,15.1,7.4c2.4,3.1,3.6,7,3.6,11.7c0,4.8-1.8,8.8-5.4,12.3c-3.6,3.4-8.2,5.1-13.8,5.1
			C545.3,162.3,541.1,160.7,537.5,157.5z"/>
	</g>
	<g>
		<path fill="#333333" d="M60.5,260.3l-11.3-15.4h-9.4v15.4h-9v-69.2h15.8c6.8,0,12.6,2.6,17.5,7.9c4.8,5.2,7.2,11.6,7.2,19
			c0,7.4-2.4,13.8-7.2,19c-1.7,1.8-3.5,3.3-5.6,4.6l13.5,18.7H60.5z M46.5,235.1c4.4,0,8.1-1.7,11.1-5c3.1-3.3,4.6-7.4,4.6-12.1
			c0-4.7-1.5-8.8-4.6-12.1c-3.1-3.4-6.8-5-11.1-5h-6.8v34.3H46.5z"/>
		<path fill="#333333" d="M84.9,200.5v32.2h21.7v9.5H84.9v8.7H113v9.5H76.2v-69.2H113v9.4H84.9z"/>
		<path fill="#333333" d="M124.4,255.3c-4-3.7-6-8.6-6-14.8h8.6c0,3.5,1.2,6.2,3.7,8.2c2,1.5,4.3,2.3,6.8,2.3c3.2,0,5.8-0.9,7.9-2.6
			c2.2-1.7,3.3-4.2,3.3-7.4c0-2.2-0.7-3.9-2-5c-1.8-2.1-5.1-3.4-9.7-3.9c-6.5-0.8-11.5-3.3-15-7.5c-2.9-3.4-4.3-7.4-4.3-11.9
			c0-5.3,1.5-10,4.4-14.1c3.6-5,8.6-7.5,15.1-7.5c6,0,10.9,2.1,14.7,6.3c3.9,4.1,5.8,9.8,5.8,16.8H149c0-4-0.9-7.2-2.6-9.5
			c-2.1-2.8-5.2-4.2-9.3-4.2c-4.5,0-7.6,2-9.5,6.1c-0.9,2.1-1.4,4.1-1.4,6.2c0,1.8,0.6,3.4,1.7,5c1.9,2.8,5.3,4.4,10,5
			c7.2,0.9,12.4,3.4,15.6,7.7c2.5,3.2,3.7,7.2,3.7,12.1c0,4.9-1.9,9.1-5.6,12.7c-3.7,3.5-8.4,5.3-14.2,5.3
			C132.5,260.3,128.1,258.6,124.4,255.3z"/>
		<path fill="#333333" d="M202.1,200.5h-15.6v59.8h-8.8v-59.8h-15.6v-9.5h39.9V200.5z"/>
		<path fill="#333333" d="M229.7,251.7H204l-3.2,8.6h-9.5l25.5-69.4l25.5,69.4h-9.5L229.7,251.7z M226.2,242.1l-9.4-25.4l-9.3,25.4
			H226.2z"/>
		<path fill="#333333" d="M247.5,252.7c-4.7-5.1-7-11.3-7-18.4v-43.2h8.7v43.2c0,4.6,1.5,8.5,4.4,11.7c3,3.2,6.6,4.9,10.8,4.9
			s7.8-1.7,10.8-4.9c3-3.2,4.4-7.1,4.4-11.7v-43.2h8.7v43.2c0,7.2-2.3,13.3-7,18.4c-4.7,5.1-10.3,7.6-16.9,7.6
			S252.1,257.8,247.5,252.7z"/>
		<path fill="#333333" d="M323.3,260.3L312,244.9h-9.4v15.4h-9v-69.2h15.8c6.8,0,12.6,2.6,17.5,7.9c4.8,5.2,7.2,11.6,7.2,19
			c0,7.4-2.4,13.8-7.2,19c-1.7,1.8-3.5,3.3-5.6,4.6l13.5,18.7H323.3z M309.4,235.1c4.4,0,8.1-1.7,11.1-5c3.1-3.3,4.6-7.4,4.6-12.1
			c0-4.7-1.5-8.8-4.6-12.1c-3.1-3.4-6.8-5-11.1-5h-6.8v34.3H309.4z"/>
		<path fill="#333333" d="M376.5,251.7h-25.8l-3.2,8.6h-9.5l25.5-69.4l25.5,69.4h-9.5L376.5,251.7z M372.9,242.1l-9.4-25.4
			l-9.3,25.4H372.9z"/>
		<path fill="#333333" d="M439.6,260.3L401.9,215v45.3h-8.6v-69.2l37.7,44.6v-44.6h8.6V260.3z"/>
		<path fill="#333333" d="M484.1,200.5h-15.6v59.8h-8.8v-59.8h-15.6v-9.5h39.9V200.5z"/>
		<path fill="#333333" d="M497.4,200.5v32.2h21.7v9.5h-21.7v8.7h28.1v9.5h-36.8v-69.2h36.8v9.4H497.4z"/>
		<path fill="#333333" d="M536.9,255.3c-4-3.7-6-8.6-6-14.8h8.6c0,3.5,1.2,6.2,3.7,8.2c2,1.5,4.3,2.3,6.8,2.3c3.2,0,5.8-0.9,7.9-2.6
			c2.2-1.7,3.3-4.2,3.3-7.4c0-2.2-0.7-3.9-2-5c-1.8-2.1-5.1-3.4-9.7-3.9c-6.5-0.8-11.5-3.3-15-7.5c-2.9-3.4-4.3-7.4-4.3-11.9
			c0-5.3,1.5-10,4.4-14.1c3.6-5,8.6-7.5,15.1-7.5c6,0,10.9,2.1,14.7,6.3c3.9,4.1,5.8,9.8,5.8,16.8h-8.6c0-4-0.9-7.2-2.6-9.5
			c-2.1-2.8-5.2-4.2-9.3-4.2c-4.5,0-7.6,2-9.5,6.1c-0.9,2.1-1.4,4.1-1.4,6.2c0,1.8,0.6,3.4,1.7,5c1.9,2.8,5.3,4.4,10,5
			c7.2,0.9,12.4,3.4,15.6,7.7c2.5,3.2,3.7,7.2,3.7,12.1c0,4.9-1.9,9.1-5.6,12.7c-3.7,3.5-8.4,5.3-14.2,5.3
			C545,260.3,540.6,258.6,536.9,255.3z"/>
	</g>
</g>
<g>
	<g>
		<rect x="33.2" y="282.7" fill="#333333" width="545.6" height="1.3"/>
		<rect x="30.8" y="282.7" fill="#333333" width="1.2" height="1.3"/>
		<rect x="29.6" y="282.7" fill="#333333" width="1.2" height="1.3"/>
		<rect x="27.2" y="282.7" fill="#333333" width="1.2" height="1.3"/>
		<rect x="24.8" y="282.7" fill="#333333" width="1.2" height="1.3"/>
		<rect x="24.8" y="282.7" fill="#333333" width="1.2" height="1.3"/>
		<rect x="23.6" y="282.7" fill="#333333" width="1.2" height="1.3"/>
		<rect x="21.2" y="282.7" fill="#333333" width="1.2" height="1.3"/>
		<rect x="18.8" y="282.7" fill="#333333" width="1.2" height="1.3"/>
		
			<rect x="580" y="282.7" transform="matrix(-1 -1.224647e-16 1.224647e-16 -1 1161.2872 566.7428)" fill="#333333" width="1.2" height="1.3"/>
	</g>
	<g>
		
			<rect x="21.2" y="286.2" transform="matrix(-1 -1.224647e-16 1.224647e-16 -1 587.9193 573.6882)" fill="#333333" width="545.6" height="1.3"/>
		
			<rect x="568" y="286.2" transform="matrix(-1 -1.224647e-16 1.224647e-16 -1 1137.1256 573.6882)" fill="#333333" width="1.2" height="1.3"/>
		
			<rect x="569.2" y="286.2" transform="matrix(-1 -1.224647e-16 1.224647e-16 -1 1139.5371 573.6882)" fill="#333333" width="1.2" height="1.3"/>
		
			<rect x="571.6" y="286.2" transform="matrix(-1 -1.224647e-16 1.224647e-16 -1 1144.36 573.6882)" fill="#333333" width="1.2" height="1.3"/>
		
			<rect x="574" y="286.2" transform="matrix(-1 -1.224647e-16 1.224647e-16 -1 1149.23 573.6882)" fill="#333333" width="1.2" height="1.3"/>
		
			<rect x="574" y="286.2" transform="matrix(-1 -1.224647e-16 1.224647e-16 -1 1149.1829 573.6882)" fill="#333333" width="1.2" height="1.3"/>
		
			<rect x="575.2" y="286.2" transform="matrix(-1 -1.224647e-16 1.224647e-16 -1 1151.6414 573.6882)" fill="#333333" width="1.2" height="1.3"/>
		
			<rect x="577.6" y="286.2" transform="matrix(-1 -1.224647e-16 1.224647e-16 -1 1156.4642 573.6882)" fill="#333333" width="1.2" height="1.3"/>
		
			<rect x="580" y="286.2" transform="matrix(-1 -1.224647e-16 1.224647e-16 -1 1161.2872 573.6882)" fill="#333333" width="1.2" height="1.3"/>
		<rect x="18.8" y="286.2" fill="#333333" width="1.2" height="1.3"/>
	</g>
</g>
<g>
	<g>
		<path fill="#333333" d="M300.9,59.5c-1.2-0.8-7.9-5-22.9-14.4c-1.6-1-14.9-8.3-18.7-9.6c0,0-0.1,12.4,36,35.1c0,0,0.8,0.6,1.3-0.4
			c0.4-0.7,0.9-2.6,5.1-3c0.1,0,0.2,0.1,0.3,0.1c0.8,0.2,2.6,2,4.7,3.4c1.4,0.9,2.8,1.9,4,2.6c3.4,2.1,5.2,2.3,5.8,3.1
			c0.6,0.7,1.6,1.7,2.6,2.3c0.9,0.6,1.8,0.9,2.5,0.7c1.5-0.5,1.4-3.5,0.9-5.5c-0.2-0.7-0.8-1.3-1.7-1.8l-15.2-9.5
			c-0.9-0.6-3.7-2.3-4.7-2.9C300.9,59.5,300.9,59.5,300.9,59.5z"/>
		<g>
			<path fill="#333333" d="M289.1,68.8c-0.9,0.5-1.7,0.9-2.6,1.4c-0.8,0.4-1.6,0.9-2.4,1.4c-0.8,0.5-1.6,1-2.3,1.5
				c-0.4,0.3-0.7,0.6-1.1,0.9c-0.2,0.1-0.4,0.3-0.5,0.4c-0.2,0.2-0.4,0.3-0.5,0.5c-0.3,0.3-0.7,0.7-1,1.1c-0.2,0.2-0.3,0.4-0.4,0.6
				c-0.1,0.2-0.3,0.5-0.4,0.7c-0.1,0.1-0.1,0.3-0.1,0.5c-0.1,0.8,0.5,1.5,1.2,1.6c0.3,0,0.5,0,0.8,0c0.2,0,0.5,0,0.7-0.1
				c0.5-0.1,0.9-0.2,1.3-0.4c0.2-0.1,0.4-0.2,0.6-0.3c0.2-0.1,0.4-0.2,0.6-0.3c0.4-0.2,0.8-0.4,1.2-0.6c0.8-0.4,1.6-0.9,2.3-1.4
				c0.8-0.5,1.5-1,2.3-1.6c1.5-1,3-2.1,4.4-3.2C292,70.6,290.5,69.7,289.1,68.8z"/>
			<path fill="#333333" d="M296.3,65.2c-0.8,0.4-1.6,0.8-2.4,1.2l-2.4,1.2c-0.1,0.1-0.3,0.1-0.4,0.2c1.1,0.7,2.3,1.5,3.5,2.3
				c0,0,0.2,0.2,0.5,0.2c0,0,0,0,0,0l0.6-0.4c0.1,0,0.1-0.1,0.2-0.1c0.3-0.6,0.8-2.1,3.6-2.7c1-0.7,1.9-1.4,2.9-2
				c1.2-0.8,2.3-1.6,3.5-2.4l-0.8-0.5c-0.3-0.2-0.9-0.6-1.6-1c-0.8,0.5-1.6,1-2.4,1.4C299.5,63.5,297.9,64.3,296.3,65.2z"/>
			<path fill="#333333" d="M340.3,43.8c-1,0.4-5.8,3.1-11.1,6.4c-0.3,0.2-1.2,0.8-1.6,0.2c-0.3-0.6,0.4-1,1.1-1.4
				c0.7-0.4,8.5-5.5,10.4-7c0,0,1.1-0.8-0.1-0.3c0,0-5.6,3-10.7,6.2c-0.4,0.3-1.6,1-1.9,0.4c-0.3-0.6,0.8-1.3,1.3-1.6
				c5.1-3.2,10.3-7,10.3-7c1-0.9-0.2-0.3-0.2-0.3c-2.2,1.1-10.1,5.9-10.8,6.3c-0.7,0.4-1.4,0.9-1.7,0.3c-0.3-0.6,0.6-1.1,1-1.4
				c5.3-3.4,9.8-6.5,10.6-7.3c0.8-0.7-0.2-0.4-0.2-0.4c-5.8,2.7-13.7,7.7-13.7,7.7c-3.5,2.2-3.8,2.9-4.3,4.5
				c-1.1,3.5-7.4,7.1-8.3,7.7c-1.6,1-3.1,1.9-4.7,2.8c-0.2,0.1-0.3,0.2-0.5,0.3c0.3,0.2,0.5,0.3,0.7,0.4l1.6,1
				c1.3-0.9,2.7-1.7,4-2.6c0.9-0.6,6.9-4.6,10.3-3.9c1.5,0.3,2.2,0.3,5.7-1.8c0,0,7.9-4.9,13-9C340.5,44.1,341.3,43.4,340.3,43.8z"
				/>
		</g>
	</g>
	<path fill="#333333" d="M316.3,23v-3.5h-2.7v-3h-2.7v-2.6h-2.7v-1.3h-2.7h-2.7H300v1.3h-2.7v2.6h-2.7v3h-2.7V23h-2.7v19.8h2.7v3.5
		h2.7v6.7h2.7v-3.5h2.7v3.5h2.7v-2.1h2.7v2.1h2.7v-3.5h2.7v3.5h2.7v-6.7h2.7v-3.5h2.7V23H316.3z M297.3,38.5h-2.7v0h-2.7v-5.4h2.7
		v-2.8h2.7v0h2.7v8.1L297.3,38.5L297.3,38.5z M308.1,44.7h-2.7v0h-2.7v0H300v-3.1h2.7v-2.2h2.7v2.2h2.7V44.7z M316.3,38.5h-2.7v0
		h-2.7v0h-2.7v-8.1h2.7v0h2.7v2.8h2.7V38.5z"/>
</g>
<rect x="30.8" y="58.9" fill="#333333" width="1.2" height="1.3"/>
<rect x="29.6" y="58.9" fill="#333333" width="1.2" height="1.3"/>
<rect x="27.2" y="58.9" fill="#333333" width="1.2" height="1.3"/>
<rect x="24.8" y="58.9" fill="#333333" width="1.2" height="1.3"/>
<rect x="24.8" y="58.9" fill="#333333" width="1.2" height="1.3"/>
<rect x="23.6" y="58.9" fill="#333333" width="1.2" height="1.3"/>
<rect x="21.2" y="58.9" fill="#333333" width="1.2" height="1.3"/>
<rect x="18.8" y="58.9" fill="#333333" width="1.2" height="1.3"/>
<rect x="580" y="58.9" transform="matrix(-1 -1.224647e-16 1.224647e-16 -1 1161.2872 119.198)" fill="#333333" width="1.2" height="1.3"/>
<rect x="568" y="62.4" transform="matrix(-1 -1.224647e-16 1.224647e-16 -1 1137.1256 126.1435)" fill="#333333" width="1.2" height="1.3"/>
<rect x="569.2" y="62.4" transform="matrix(-1 -1.224647e-16 1.224647e-16 -1 1139.5371 126.1435)" fill="#333333" width="1.2" height="1.3"/>
<rect x="571.6" y="62.4" transform="matrix(-1 -1.224647e-16 1.224647e-16 -1 1144.36 126.1435)" fill="#333333" width="1.2" height="1.3"/>
<rect x="574" y="62.4" transform="matrix(-1 -1.224647e-16 1.224647e-16 -1 1149.23 126.1435)" fill="#333333" width="1.2" height="1.3"/>
<rect x="574" y="62.4" transform="matrix(-1 -1.224647e-16 1.224647e-16 -1 1149.1829 126.1435)" fill="#333333" width="1.2" height="1.3"/>
<rect x="575.2" y="62.4" transform="matrix(-1 -1.224647e-16 1.224647e-16 -1 1151.6414 126.1435)" fill="#333333" width="1.2" height="1.3"/>
<rect x="577.6" y="62.4" transform="matrix(-1 -1.224647e-16 1.224647e-16 -1 1156.4642 126.1435)" fill="#333333" width="1.2" height="1.3"/>
<rect x="580" y="62.4" transform="matrix(-1 -1.224647e-16 1.224647e-16 -1 1161.2872 126.1435)" fill="#333333" width="1.2" height="1.3"/>
<rect x="18.8" y="62.4" fill="#333333" width="1.2" height="1.3"/>
<path fill="#333333" d="M33.2,58.9v1.3h244.5c-0.6-0.4-1.1-0.9-1.6-1.3H33.2z"/>
<path fill="#333333" d="M578.8,60.3v-1.3H314.4c-0.7,0.4-1.4,0.8-2.3,1.3H578.8z"/>
<path fill="#333333" d="M310.8,63.7h256v-1.3h-257c-0.2,0.1-0.3,0.2-0.5,0.3L310.8,63.7z"/>
<path fill="#333333" d="M21.2,62.4v1.3h261.1c-0.6-0.4-1.2-0.9-1.8-1.3H21.2z"/>
</svg>
