<?xml version="1.0" encoding="utf-8"?>
<!-- Generator: Adobe Illustrator 24.1.1, SVG Export Plug-In . SVG Version: 6.00 Build 0)  -->
<svg version="1.1" id="Camada_1" xmlns="http://www.w3.org/2000/svg" xmlns:xlink="http://www.w3.org/1999/xlink" x="0px" y="0px"
	 viewBox="0 0 31 31" enable-background="new 0 0 31 31" xml:space="preserve">
<g>
	<path d="M31,12c-0.1,1.4-0.6,2.8-1.3,4c-1.1,2-2.6,3.7-4.3,5.2c-2.8,2.5-5.7,5-8.6,7.5c-0.8,0.7-1.8,0.7-2.6,0
		c-0.7-0.6-1.4-1.2-2.1-1.8c-2.3-2-4.6-4-6.9-6.1c-1.6-1.4-3-3-4-5c-1.8-3.5-1.8-7,0.4-10.3c1.9-2.9,4.7-4.1,8.1-3.8
		c2.1,0.2,3.7,1.3,5.1,2.9c0.2,0.2,0.4,0.5,0.6,0.8c0.2-0.3,0.4-0.6,0.7-0.8c2.4-2.8,6.1-3.7,9.5-2.2c2.7,1.2,4.3,3.3,5,6.1
		c0.2,0.6,0.2,1.2,0.3,1.8"/>
</g>
</svg>
