<?xml version="1.0" encoding="utf-8"?>
<!-- Generator: Adobe Illustrator 24.1.1, SVG Export Plug-In . SVG Version: 6.00 Build 0)  -->
<svg version="1.1" id="Camada_1" xmlns="http://www.w3.org/2000/svg" xmlns:xlink="http://www.w3.org/1999/xlink" x="0px" y="0px"
	 viewBox="0 0 40 40" enable-background="new 0 0 40 40" xml:space="preserve">
<g>
	<path d="M10.3,39.9c0-0.8,0-1.5,0-2.3c1.8,0,3.5,0,5.3,0c0-0.2,0-0.3,0-0.5c0-3.6,0-7.2,0-10.9c0-0.4-0.1-0.5-0.5-0.6
		c-3.5-0.8-6-3.8-6.1-7.4c0-0.1,0-0.2,0-0.3c-0.3-0.1-0.6-0.1-0.9-0.2C5,16.8,2.8,14,2.8,10.7c0-1.4,0-2.8,0-4.3c6.5,0,13,0,19.5,0
		c0.1-0.3,0.1-0.5,0.2-0.7c0.9-3.5,4-5.8,7.6-5.6c3.4,0.1,6.4,2.8,7,6.2c0.8,4.5-2.7,8.7-7.3,8.8c-0.3,0-0.5,0.1-0.7,0.3
		c-1.1,1.4-2.6,2.2-4.3,2.6c-0.1,0-0.2,0-0.2,0.1c-0.1,0.7-0.2,1.4-0.3,2.1c-0.9,3-2.9,4.9-5.9,5.6c-0.3,0.1-0.4,0.1-0.4,0.4
		c0,3.7,0,7.5,0,11.2c0,0.1,0,0.2,0,0.3c1.8,0,3.5,0,5.3,0c0,0.8,0,1.6,0,2.3C19,39.9,14.7,39.9,10.3,39.9z M27.8,13.3
		c-7.3,0-14.6,0-21.9,0c1.4,2,3.3,2.6,5.5,2.4c0,0.9,0,1.7,0,2.5c0.1,2.3,1.2,4,3.3,4.9c2.1,0.9,4.1,0.5,5.8-1.1
		c1.1-1,1.7-2.4,1.7-3.9c0-0.8,0-1.5,0-2.4c1.1,0,2.1,0,3.1-0.4C26.4,14.9,27.2,14.2,27.8,13.3z M28.5,8.7c-7.8,0-15.6,0-23.4,0
		c0,0.7,0,1.4,0,2.2c7.8,0,15.6,0,23.4,0C28.5,10.2,28.5,9.5,28.5,8.7z M30.9,6.4c-0.1,2.1,0.2,4.2-0.3,6.2c1.9-0.2,4.4-2.2,4.2-5.4
		c-0.1-2.7-2.5-4.9-5.2-4.8c-2.4,0-4.9,2-4.9,4C26.8,6.4,28.8,6.4,30.9,6.4z"/>
</g>
</svg>
