<?xml version="1.0" encoding="utf-8"?>
<svg version="1.1" id="Camada_1" x="0px" y="0px" viewBox="0 0 30 30" enable-background="new 0 0 30 30" xmlns="http://www.w3.org/2000/svg">
  <rect x="-11.5" y="5.1" fill="none" width="17.3" height="17.3"/>
  <path d="M27.7,30c-0.1-5.4-3.2-9.9-8.2-11.9C14.7,16.3,9,17.7,5.6,21.6c-1.8,2-2.9,4.4-3.2,7.1c-0.1,0.4,0,0.9-0.1,1.3 c-0.8,0-1.6,0-2.3,0c0-0.3,0-0.6,0-0.9c0.1-0.5,0.1-1.1,0.2-1.6c1.1-5.6,4.3-9.4,9.5-11.5c0.1,0,0.2-0.1,0.3-0.1 c-2.5-1.9-3.8-4.3-3.7-7.4c0.1-2.3,0.9-4.3,2.6-5.9c3.4-3.3,8.8-3.3,12.2,0c1.9,1.9,2.8,4.2,2.5,6.9c-0.2,2.7-1.5,4.8-3.6,6.3 c6.3,2.7,9.8,7.3,10,14.2C29.2,30,28.4,30,27.7,30z M15,2.3c-3.5,0-6.3,2.8-6.3,6.3c0,3.5,2.8,6.3,6.3,6.3c3.5,0,6.3-2.8,6.3-6.3 C21.3,5.2,18.5,2.4,15,2.3z"/>
</svg>