<?xml version="1.0" encoding="utf-8"?>
<!-- Generator: Adobe Illustrator 24.1.1, SVG Export Plug-In . SVG Version: 6.00 Build 0)  -->
<svg version="1.1" id="Camada_1" xmlns="http://www.w3.org/2000/svg" xmlns:xlink="http://www.w3.org/1999/xlink" x="0px" y="0px"
	 viewBox="0 0 30 30" enable-background="new 0 0 30 30" xml:space="preserve">
<path d="M1.4,30c-0.4-0.4-0.8-0.8-1.2-1.2c-0.2-0.2-0.2-0.5,0-0.7c0.1-0.1,0.2-0.2,0.3-0.3c2.8-2.8,5.5-5.5,8.3-8.3
	c0.1-0.1,0.2-0.1,0.2-0.2c-0.4-0.7-0.9-1.3-1.2-1.9C4,10.6,7.9,2,15.6,0.3c6.6-1.5,13.1,2.9,14.3,9.6c0.1,0.4,0.1,0.8,0.2,1.2
	c0,0.5,0,1.1,0,1.6c0,0.1,0,0.1,0,0.2c-0.2,2.6-1.2,4.9-2.9,6.8c-3.6,4.1-9.7,5.3-14.5,2.6c-0.6-0.4-1.2-0.8-1.9-1.2
	c-0.1,0.1-0.1,0.2-0.2,0.3c-2.7,2.7-5.4,5.4-8.2,8.2c-0.2,0.2-0.3,0.3-0.5,0.4C1.6,30,1.5,30,1.4,30z M18.1,21.2
	c5.2,0,9.4-4.2,9.3-9.4c0-5.2-4.2-9.4-9.4-9.4c-5.2,0-9.4,4.2-9.4,9.4C8.8,17.1,13,21.3,18.1,21.2z"/>
</svg>
