<?xml version="1.0" encoding="utf-8"?>
<!-- Generator: Adobe Illustrator 24.1.1, SVG Export Plug-In . SVG Version: 6.00 Build 0)  -->
<svg version="1.1" id="Camada_1" xmlns="http://www.w3.org/2000/svg" xmlns:xlink="http://www.w3.org/1999/xlink" x="0px" y="0px"
	 viewBox="0 0 26 26" enable-background="new 0 0 26 26" xml:space="preserve">
<path d="M26,9.9c-0.1,0.5-0.2,1-0.3,1.5c-0.4,1.7-1.3,3.1-2.4,4.4c-1.2,1.4-2.6,2.7-4,3.9c-1.7,1.5-3.5,3-5.2,4.5
	c-0.6,0.5-1.4,0.6-2.1,0c-2.4-2.1-4.9-4.2-7.3-6.3c-1.3-1.2-2.5-2.5-3.5-4.1C0.6,12.6,0.2,11.4,0,10C0,10,0,9.9,0,9.9
	C0,9.4,0,9,0,8.6c0-0.1,0-0.1,0-0.2c0.1-0.9,0.3-1.7,0.6-2.5c1.2-2.7,3.2-4.2,6.2-4.4c2.3-0.2,4.1,0.8,5.6,2.4
	c0.2,0.2,0.4,0.4,0.5,0.7c0.2-0.2,0.4-0.5,0.6-0.7c2.1-2.4,5.1-3.1,7.9-1.9c2.3,1,3.6,2.8,4.2,5.1c0.1,0.5,0.2,1,0.3,1.5
	C26,9,26,9.4,26,9.9z M13,23c0.7-0.6,1.4-1.2,2-1.8c2-1.7,4-3.3,5.8-5.2c1.1-1.1,2.2-2.3,2.9-3.8c1.1-2.5,1-4.9-0.5-7.1
	c-1.5-2.1-4.4-2.9-6.7-1.7c-1.1,0.6-1.9,1.4-2.6,2.5c-0.5,0.8-1.3,0.8-1.8,0c-0.2-0.4-0.5-0.7-0.8-1.1c-2.7-3.1-7.2-2.2-8.9,1
	C1.2,8,1.2,10.1,2.3,12.3C2.9,13.8,4,15,5.1,16.1C7,17.9,9,19.6,11,21.3C11.7,21.9,12.3,22.5,13,23z"/>
</svg>
