<?xml version="1.0" encoding="utf-8"?>
<!-- Generator: Adobe Illustrator 24.1.1, SVG Export Plug-In . SVG Version: 6.00 Build 0)  -->
<svg version="1.1" id="Camada_1" xmlns="http://www.w3.org/2000/svg" xmlns:xlink="http://www.w3.org/1999/xlink" x="0px" y="0px"
	 viewBox="0 0 40 40" enable-background="new 0 0 40 40" xml:space="preserve">
<g>
	<path fill="#FFFFFF" d="M-0.1,3.5C-0.1,3.2,0,2.9,0,2.6c0.2-1.2,1.2-2.1,2.4-2.2c2.9,0,5.4,0.8,7.6,2.7c0.9,0.8,1.8,1.6,2.7,2.4
		c1.4,1.3,2,2.8,1.8,4.7c0,0.6-0.1,1.3-0.1,1.9c-0.1,1.1,0.3,2,1.1,2.8c4.6,4.7,9.2,9.5,13.9,14.2c1.8,1.8,3.5,3.6,5.3,5.5
		c1.1,1.1,1.2,2.7,0.4,4c-0.8,1.2-2.5,1.8-3.8,1.2c-0.5-0.2-0.9-0.5-1.3-0.9c-4-5-8-9.9-12.1-14.9c-1.8-2.2-3.5-4.4-5.3-6.6
		c-0.8-0.9-1.7-1.3-2.9-1.4c-0.9,0-1.8-0.1-2.7-0.2C5.8,15.6,4.7,15,4,14c-1-1.6-2-3.1-2.9-4.6C0.4,8.3,0.1,6.9,0,5.6
		c0-0.1,0-0.2-0.1-0.3C-0.1,4.7-0.1,4.1-0.1,3.5z M13.4,11c0-0.4,0-0.9,0-1.3c0-1.3-0.5-2.4-1.4-3.3c-0.9-0.8-1.9-1.7-2.8-2.5
		C7.3,2.4,5.1,1.6,2.6,1.7C1.8,1.7,1.3,2.1,1.2,3C0.9,5.3,1.3,7.5,2.5,9.5c0.7,1.2,1.5,2.3,2.3,3.4c0.6,0.9,1.5,1.4,2.6,1.6
		c0.9,0.1,1.8,0.2,2.7,0.2c1.4,0.1,2.6,0.6,3.5,1.8c2.2,2.7,4.4,5.4,6.6,8.1c3.6,4.5,7.2,8.9,10.8,13.4c0.2,0.3,0.6,0.6,1,0.7
		c0.9,0.3,1.8-0.2,2.3-0.9c0.5-0.8,0.4-1.7-0.4-2.4c-6.4-6.6-12.8-13.1-19.1-19.7c-0.4-0.5-0.8-1-1.1-1.6C13.2,13.1,13.3,12,13.4,11
		z"/>
	<path fill="#FFFFFF" d="M30.6,11.6c0.5,0.6,0.6,0.6,1.1,0.1c2-2,3.9-3.9,5.9-5.9c0.6-0.6,1.4-0.7,1.9-0.2c0.7,0.5,0.7,1.4,0.2,2.1
		c-1.3,1.6-2.6,3.1-3.9,4.7c-0.9,1-1.7,2-2.6,3c-1.1,1.3-2.5,1.9-4.2,1.9c-0.8,0-1.5,0-2.3,0c-0.9,0-1.7,0.3-2.4,1
		c-0.4,0.4-0.7,0.8-1,1.1c-0.3,0.3-0.7,0.4-0.9,0.1c-0.3-0.2-0.3-0.6,0-0.9c0.4-0.4,0.7-0.8,1.1-1.2c0.8-0.8,1.8-1.3,3-1.3
		c1,0,1.9,0,2.9-0.1c1.1-0.1,2-0.6,2.7-1.4c2.1-2.5,4.3-5.1,6.4-7.6c0.2,0,0.3,0,0.3-0.1s0-0.2,0-0.3c-0.1,0-0.2,0-0.3,0.1
		c-0.1,0-0.2,0.1-0.2,0.2c-1.9,1.9-3.9,3.9-5.8,5.8c-0.8,0.8-1.7,0.8-2.5,0s-1.7-1.7-2.5-2.5s-0.8-1.7,0-2.5
		c1.9-1.9,3.9-3.9,5.8-5.8c0.1-0.1,0.1-0.1,0.2-0.2c0.1-0.1,0.1-0.3,0.2-0.5c-0.2,0-0.3,0-0.5,0.1c-0.6,0.4-1.1,0.9-1.7,1.4
		c-2,1.7-4.1,3.4-6.1,5.1c-1,0.8-1.3,1.9-1.4,3.2c0,0.7,0,1.4,0,2.1c0,1.4-0.5,2.6-1.6,3.5c-0.3,0.3-0.6,0.5-0.9,0.8s-0.7,0.3-0.9,0
		c-0.2-0.3-0.2-0.6,0.1-0.9c0.3-0.3,0.7-0.6,1-0.9c0.8-0.7,1.1-1.6,1.1-2.6s0-2,0.1-2.9c0.1-1.3,0.8-2.5,1.8-3.3
		c2.5-2.1,5.1-4.3,7.6-6.4C32.6,0.2,33-0.1,33.5,0c0.6,0.1,1,0.4,1.2,0.9c0.2,0.6,0.1,1.1-0.3,1.5c-1,1-2.1,2.1-3.1,3.1
		c-1,1-1.9,1.9-2.9,2.9c-0.5,0.5-0.5,0.6,0.1,1.1c0.1-0.1,0.2-0.2,0.3-0.3C30.9,7,33,4.9,35.2,2.8c0.1-0.1,0.2-0.2,0.3-0.3
		c0.3-0.2,0.5-0.2,0.8,0c0.2,0.2,0.2,0.5,0.1,0.8c-0.1,0.1-0.2,0.3-0.3,0.4c-2.1,2.1-4.2,4.2-6.4,6.4c-0.1,0.1-0.2,0.2-0.3,0.3
		c0.2,0.1,0.3,0.2,0.5,0.4c0.1-0.1,0.2-0.2,0.3-0.3c2.1-2.1,4.3-4.3,6.4-6.4c-0.1-0.1,0-0.1,0.1-0.2c0.3-0.3,0.7-0.3,0.9,0
		s0.2,0.6,0,0.9c-0.1,0.1-0.1,0.1-0.2,0.2c-2.1,2.1-4.3,4.3-6.4,6.4C30.8,11.4,30.7,11.5,30.6,11.6z"/>
	<path fill="#FFFFFF" d="M3.8,40c-2.5,0-4-2-3.5-4c0.1-0.6,0.5-1.1,0.9-1.5c4.3-3.9,8.6-7.8,12.8-11.7c0.3-0.2,0.5-0.4,0.9-0.2
		c0.4,0.2,0.4,0.7-0.1,1.1c-1.9,1.7-3.8,3.5-5.7,5.2c-2.4,2.2-4.8,4.3-7.1,6.5c-0.8,0.7-0.8,2,0,2.8c0.7,0.8,2,0.8,2.8,0
		c3.8-4.1,7.5-8.3,11.3-12.4c0.5-0.5,0.8-0.6,1.1-0.3c0.3,0.3,0.2,0.6-0.2,1.1C13.2,30.7,9.4,34.8,5.7,39C5.1,39.6,4.3,40,3.8,40z"
		/>
</g>
</svg>
