<?xml version="1.0" encoding="UTF-8" standalone="no"?>
<svg
   xmlns:dc="http://purl.org/dc/elements/1.1/"
   xmlns:cc="http://creativecommons.org/ns#"
   xmlns:rdf="http://www.w3.org/1999/02/22-rdf-syntax-ns#"
   xmlns:svg="http://www.w3.org/2000/svg"
   xmlns="http://www.w3.org/2000/svg"
   xmlns:sodipodi="http://sodipodi.sourceforge.net/DTD/sodipodi-0.dtd"
   xmlns:inkscape="http://www.inkscape.org/namespaces/inkscape"
   version="1.1"
   id="Camada_1"
   x="0px"
   y="0px"
   viewBox="0 0 30 30"
   enable-background="new 0 0 30 30"
   xml:space="preserve"
   sodipodi:docname="profileIcon.svg"><metadata
   id="metadata11"><rdf:RDF><cc:Work
       rdf:about=""><dc:format>image/svg+xml</dc:format><dc:type
         rdf:resource="http://purl.org/dc/dcmitype/StillImage" /></cc:Work></rdf:RDF></metadata><defs
   id="defs9" /><sodipodi:namedview
   pagecolor="#ffffff"
   bordercolor="#666666"
   borderopacity="1"
   objecttolerance="10"
   gridtolerance="10"
   guidetolerance="10"
   inkscape:pageopacity="0"
   inkscape:pageshadow="2"
   inkscape:window-width="640"
   inkscape:window-height="480"
   id="namedview7" />
<rect
   x="-11.5"
   y="5.1"
   fill="none"
   width="17.3"
   height="17.3"
   id="rect2" />
<path
   fill="#FFFFFF"
   d="M27.7,30c-0.1-5.4-3.2-9.9-8.2-11.9C14.7,16.3,9,17.7,5.6,21.6c-1.8,2-2.9,4.4-3.2,7.1  c-0.1,0.4,0,0.9-0.1,1.3c-0.8,0-1.6,0-2.3,0c0-0.3,0-0.6,0-0.9c0.1-0.5,0.1-1.1,0.2-1.6c1.1-5.6,4.3-9.4,9.5-11.5  c0.1,0,0.2-0.1,0.3-0.1C7.5,14,6.2,11.6,6.3,8.5c0.1-2.3,0.9-4.3,2.6-5.9c3.4-3.3,8.8-3.3,12.2,0c1.9,1.9,2.8,4.2,2.5,6.9  c-0.2,2.7-1.5,4.8-3.6,6.3c6.3,2.7,9.8,7.3,10,14.2C29.2,30,28.4,30,27.7,30z M15,2.3c-3.5,0-6.3,2.8-6.3,6.3s2.8,6.3,6.3,6.3  s6.3-2.8,6.3-6.3C21.3,5.2,18.5,2.4,15,2.3z"
   id="path4" />
</svg>
