<?xml version="1.0" encoding="utf-8"?>
<!-- Generator: Adobe Illustrator 24.1.1, SVG Export Plug-In . SVG Version: 6.00 Build 0)  -->
<svg version="1.1" id="Camada_1" xmlns="http://www.w3.org/2000/svg" xmlns:xlink="http://www.w3.org/1999/xlink" x="0px" y="0px"
	 viewBox="0 0 26 26" enable-background="new 0 0 26 26" xml:space="preserve">
<path fill="#FFFFFF" d="M0.1,11.9c0-0.2,0.1-0.4,0.1-0.6c0.5-1.8,1.7-3,3.6-3.4s3.5,0.4,4.6,2c0.1,0.2,0.2,0.2,0.4,0.1
	c2.7-1,5.3-2.1,8-3.1c0.1,0,0.2-0.1,0.3-0.1c-0.3-1.3-0.1-2.5,0.7-3.6c0.8-1.1,1.8-1.7,3.1-1.9c2.1-0.3,4.3,1,4.9,3.1
	c0.7,2.1-0.3,4.4-2.3,5.4s-4.7,0.5-6-1.8c-2.8,1.1-5.7,2.2-8.5,3.3c0.2,0.8,0.2,1.5-0.1,2.3c2.9,1.3,5.8,2.7,8.7,4
	c0.9-1.2,2-2,3.6-2.1c1.1-0.1,2.1,0.2,3,0.9c1.8,1.3,2.4,3.8,1.3,5.8S22,25,19.8,24.2c-2-0.7-3.5-3-2.8-5.6c-2.9-1.3-5.8-2.7-8.7-4
	c-0.1,0.1-0.1,0.1-0.2,0.2c-1.1,1.5-3,2.2-4.8,1.7c-1.8-0.4-3.1-2-3.4-3.8v-0.1C0.1,12.5,0.1,12.2,0.1,11.9z M24.7,5.9
	c0-1.8-1.5-3.2-3.2-3.3c-1.8,0-3.2,1.5-3.3,3.2c0,1.8,1.5,3.3,3.3,3.3C23.2,9.1,24.7,7.7,24.7,5.9z M24.7,20c0-1.8-1.5-3.2-3.3-3.2
	c-1.8,0-3.2,1.5-3.2,3.2c0,1.8,1.5,3.3,3.3,3.3C23.3,23.3,24.7,21.8,24.7,20z M1.4,12.4c0,1.8,1.5,3.2,3.2,3.2
	c1.8,0,3.2-1.4,3.3-3.2c0-1.8-1.5-3.3-3.3-3.3C2.9,9.1,1.4,10.6,1.4,12.4z"/>
</svg>
